HIERARCHY
ROOT Hips
{
  OFFSET 0 0 0
  CHANNELS 6 Xposition Yposition Zposition Zrotation Yrotation Xrotation
  JOINT LeftThigh
  {
    OFFSET 8.409438 0 -5.917753
    CHANNELS 3 Zrotation Yrotation Xrotation
    JOINT LeftLeg
    {
      OFFSET 0 0 -42.358652
      CHANNELS 3 Zrotation Yrotation Xrotation
      JOINT LeftFoot
      {
        OFFSET 0 0 -39.357303
        CHANNELS 3 Zrotation Yrotation Xrotation
      }
    }
  }
  JOINT RightThigh
  {
    OFFSET -8.409438 0 -5.917753
    CHANNELS 3 Zrotation Yrotation Xrotation
    JOINT RightLeg
    {
      OFFSET 0 0 -42.358652
      CHANNELS 3 Zrotation Yrotation Xrotation
      JOINT RightFoot
      {
        OFFSET 0 0 -39.357303
        CHANNELS 3 Zrotation Yrotation Xrotation
      }
    }
  }
  JOINT SpineLow
  {
    OFFSET 0 0 4.719101
    CHANNELS 3 Zrotation Yrotation Xrotation
    JOINT SpineMid
    {
      OFFSET 0 0 12.899191
      CHANNELS 3 Zrotation Yrotation Xrotation
      JOINT Chest
      {
        OFFSET 0 0 12.899191
        CHANNELS 3 Zrotation Yrotation Xrotation
        JOINT LeftShoulder
        {
          OFFSET 7.550562 1.41573 9.438202
          CHANNELS 3 Zrotation Yrotation Xrotation
          JOINT LeftArm
          {
            OFFSET 9.155056 0 4.247191
            CHANNELS 3 Zrotation Yrotation Xrotation
            JOINT LeftForearm
            {
              OFFSET 0 0 25.771955
              CHANNELS 3 Zrotation Yrotation Xrotation
              JOINT LeftHand
              {
                OFFSET 0 0 25.197169
                CHANNELS 3 Zrotation Yrotation Xrotation
              }
            }
          }
        }
        JOINT RightShoulder
        {
          OFFSET -7.550562 1.41573 9.438202
          CHANNELS 3 Zrotation Yrotation Xrotation
          JOINT RightArm
          {
            OFFSET -9.155056 0 4.247191
            CHANNELS 3 Zrotation Yrotation Xrotation
            JOINT RightForearm
            {
              OFFSET 0 0 -25.771955
              CHANNELS 3 Zrotation Yrotation Xrotation
              JOINT RightHand
              {
                OFFSET 0 0 -25.197169
                CHANNELS 3 Zrotation Yrotation Xrotation
              }
            }
          }
        }
        JOINT Neck
        {
          OFFSET 0 0 15.101124
          CHANNELS 3 Zrotation Yrotation Xrotation
          JOINT Head
          {
            OFFSET 0 0 11.325843
            CHANNELS 3 Zrotation Yrotation Xrotation
            End Site
            {
              OFFSET 0 0 14.157303
            }
          }
        }
      }
    }
  }
}
MOTION
Frames: 7
Frame Time: 0.0
0.0  93.25843  0.0  -8.235568  0.20291  -129.381089  -8.139044  -4.58881  19.004413  -8.093643  -1.212355  16.585531  3.867905  1.809616  5.556651  27.374686  -32.119764  -105.479381  22.768152  31.292266  112.068798  11.69486  13.938146  3.839816  -2.14481  -2.860607  2.0918  -6.130996  -7.618987  5.991681  -6.130996  -7.618986  5.991681  -0.581974  27.853728  21.15584  177.138497  53.966406  -131.3743  -21.120653  -11.422457  80.105027  74.692509  -22.105854  6.404154  4.909995  -2.790484  24.840044  69.815201  69.123694  33.29278  -26.882142  -2.089169  -88.756435  78.146444  0.082767  -34.884083  -21.681773  18.572375  13.192377  -16.537311  13.49314  10.501015  
0.0  93.25843  0.0  -8.440191  0.421522  -130.022482  -7.793643  -4.854619  19.56053  -8.515485  -1.103208  16.923752  3.460274  1.843396  5.461683  27.594317  -31.922478  -106.457667  22.989831  31.351265  112.03585  12.088371  13.911855  4.035957  -2.076973  -2.87335  2.215824  -5.960506  -7.648565  6.325366  -5.960506  -7.648565  6.325365  -0.998874  28.786239  21.628668  179.510831  52.20053  -131.971837  -18.50009  -7.494515  76.939323  75.919025  -21.589498  5.771328  3.267644  -2.243261  25.587224  65.634728  65.95573  30.945613  -24.339293  -3.091484  -88.839645  80.933972  -1.234749  -37.069593  -22.348771  18.379405  13.054327  -17.027425  13.339788  10.414331  
0.0  93.25843  0.0  -8.456626  0.566938  -130.462963  -7.248255  -5.12299  19.982878  -8.76327  -0.997863  17.274562  2.85841  1.824507  5.257616  27.931313  -31.694995  -107.105407  23.183961  31.406532  111.913437  12.417807  13.888886  4.260213  -2.01523  -2.84118  2.417094  -5.810352  -7.548633  6.866825  -5.810353  -7.548632  6.866824  -1.572956  29.549314  21.381868  -177.101107  49.700687  -133.015561  -14.929204  -3.586673  74.384816  78.256368  -21.277451  4.659033  2.286154  -2.032524  25.589143  61.795225  62.70394  29.432923  -21.797131  -3.162457  -88.456887  83.802441  -2.500112  -38.671513  -22.925743  17.908234  12.651274  -17.440648  12.988823  10.118023  
0.0  93.25843  0.0  -8.282637  0.653252  -130.702281  -7.141876  -4.961078  20.023907  -8.83405  -0.816229  17.57773  2.811577  1.779426  5.293839  28.331116  -31.455836  -107.39073  23.391384  31.467555  111.785161  12.65774  13.883745  4.513883  -1.947342  -2.802163  2.578949  -5.637616  -7.435152  7.298956  -5.637616  -7.435152  7.298955  -2.072189  30.311175  21.033019  -176.644984  47.417535  -135.823308  -13.015613  -0.87546  71.24937  80.262307  -21.052957  4.188823  1.30818  -1.668398  25.769651  58.932348  59.393274  28.756288  -19.626513  -2.50598  -87.631353  86.670026  -3.446036  -39.34666  -23.458015  17.474711  12.24708  -17.821656  12.667795  9.819429  
0.0  93.25843  0.0  -7.988878  0.698963  -130.784957  -7.064752  -4.723848  19.846484  -8.590808  -0.702531  17.984113  2.766753  1.766873  5.335836  28.736332  -31.223726  -107.193432  23.519261  31.581749  111.654724  12.712742  13.911205  4.722353  -1.828628  -2.736949  2.676229  -5.314819  -7.262549  7.546149  -5.314819  -7.262549  7.546149  -2.378943  30.603424  20.91939  -177.965407  45.676038  -138.912897  -12.871525  1.656314  67.158587  81.360582  -20.68757  5.010763  -0.079456  -1.189718  26.472388  56.379942  56.171131  27.931368  -17.753802  -1.304388  -86.295885  89.084407  -4.203677  -39.175325  -24.05219  17.006502  11.969362  -18.253169  12.315479  9.614691  
0.0  93.25843  0.0  -7.662653  0.718551  -130.695822  -6.990886  -4.457641  19.428481  -8.39228  -0.55737  18.331073  2.737167  1.73424  5.354189  28.999808  -30.974189  -106.550734  22.884182  33.014388  112.438504  13.421002  15.168464  3.896023  -1.675629  -2.639995  2.756719  -4.891941  -7.009692  7.741419  -4.891941  -7.009692  7.741419  -2.746572  30.430175  20.876691  -179.230811  44.144806  -141.222513  -12.906288  3.482888  62.521638  81.378972  -20.284276  6.604011  -1.718896  -1.271196  26.837615  54.124667  52.990895  27.497907  -15.706327  -0.236136  -84.255616  89.215888  -3.95454  -38.800596  -24.655305  16.373726  11.660616  -18.690361  11.840967  9.379956  
0.0  93.25843  0.0  -7.358378  0.703635  -130.479045  -6.869185  -4.329103  18.835345  -8.157335  -0.354577  18.637913  2.82758  1.644789  5.41364  29.118124  -30.972213  -105.452169  22.944412  32.165232  111.940602  12.415258  14.726565  4.370525  -1.606189  -2.565395  2.851289  -4.701823  -6.807482  7.986801  -4.701823  -6.807482  7.986801  -2.759669  30.52963  20.808662  179.854229  42.878741  -143.159727  -11.92599  3.588649  58.189487  81.551932  -20.155718  8.215242  -2.762686  -1.490755  26.974608  51.575197  49.975471  26.967564  -13.413671  -0.114148  -81.911293  89.601284  -4.714455  -36.52901  -24.931694  15.823363  11.108518  -18.878425  11.444197  8.955774  
